<svg width="214" height="186" viewBox="0 0 214 186" fill="none" xmlns="http://www.w3.org/2000/svg">
<path d="M13.0715 26.588C20.9406 27.226 31.2313 28.875 39.2276 29.94C54.615 31.949 69.9918 34.039 85.3576 36.209C90.3716 42.001 95.6566 48.778 100.675 54.764C122.624 81.072 144.406 107.52 166.019 134.105L186.723 158.93C190.588 163.531 198.235 172.201 200.841 177.1C198.177 176.947 194.994 176.399 192.34 175.951C170.878 172.324 149.058 170.527 127.625 166.774C102.897 138.124 77.7667 106.26 53.5922 76.902C44.1529 65.513 34.8021 54.05 25.5406 42.515C22.5585 38.811 15.1972 30.112 13.0715 26.588Z" fill="#C8DEFF"/>
<path d="M212.449 0L213.312 0.195007C212.618 2.80401 146.078 84.396 139.1 92.873C134.431 87.827 130.113 82.474 125.731 77.174C119.562 69.914 112.542 61.764 106.816 54.253C116.267 43.338 124.776 32.858 133.91 21.799C146.655 19.081 160.29 14.643 172.92 11.188C186.01 7.60602 199.644 4.291 212.449 0Z" fill="#A8CCFF"/>
<path d="M64.234 101.421C68.5426 104.364 91.3036 133.88 96.4056 140C89.9046 146.997 81.2948 157.91 75.2713 165.372C58.5865 169.417 43.5699 173.545 27.063 178.283C18.1561 180.844 8.9753 183.614 0 185.818C6.6669 175.202 20.895 158.468 28.8669 147.856C40.0812 132.927 52.4565 115.678 64.234 101.421Z" fill="#C8DEFF"/>
</svg>
