<svg width="913" height="187" viewBox="0 0 913 187" fill="none" xmlns="http://www.w3.org/2000/svg">
<path d="M13.0715 27.073C20.9406 27.711 31.2313 29.36 39.2276 30.425C54.615 32.434 69.9918 34.524 85.3576 36.694C90.3716 42.486 95.6566 49.263 100.675 55.249C122.624 81.557 144.406 108.005 166.019 134.59L186.723 159.415C190.588 164.016 198.235 172.686 200.841 177.585C198.177 177.432 194.994 176.884 192.34 176.436C170.878 172.809 149.058 171.012 127.625 167.259C102.897 138.609 77.7667 106.745 53.5922 77.387C44.1529 65.998 34.8021 54.535 25.5406 43C22.5585 39.296 15.1972 30.597 13.0715 27.073Z" fill="#77ADF4"/>
<path d="M212.449 0.484985L213.312 0.679993C212.618 3.28899 146.078 84.881 139.1 93.358C134.431 88.312 130.113 82.959 125.731 77.659C119.562 70.399 112.542 62.249 106.816 54.738C116.267 43.823 124.776 33.343 133.91 22.284C146.655 19.566 160.29 15.128 172.92 11.673C186.01 8.091 199.644 4.77599 212.449 0.484985Z" fill="#084281"/>
<path d="M64.234 101.906C68.5426 104.849 91.3036 134.365 96.4056 140.485C89.9046 147.482 81.2948 158.395 75.2713 165.857C58.5865 169.902 43.5699 174.03 27.063 178.768C18.1561 181.329 8.9753 184.099 0 186.303C6.6669 175.687 20.895 158.953 28.8669 148.341C40.0812 133.412 52.4565 116.163 64.234 101.906Z" fill="#77ADF4"/>
<path d="M283.716 128L255.812 87.296H253.636L218.564 39.168H232.9L260.548 77.44H262.724L297.796 128H283.716ZM217.028 128L251.46 80.768L259.652 87.936L230.596 128H217.028ZM263.492 85.12L255.428 77.952L282.82 39.168H296.388L263.492 85.12ZM318.498 93.44V82.944H342.69C346.018 82.944 348.962 82.2613 351.522 80.896C354.167 79.5307 356.215 77.6107 357.666 75.136C359.202 72.6613 359.97 69.7173 359.97 66.304C359.97 62.8907 359.202 59.9467 357.666 57.472C356.215 54.9973 354.167 53.0773 351.522 51.712C348.962 50.3467 346.018 49.664 342.69 49.664H318.498V39.168H343.458C348.919 39.168 353.783 40.2773 358.05 42.496C362.402 44.7147 365.815 47.872 368.29 51.968C370.85 55.9787 372.13 60.7573 372.13 66.304C372.13 71.7653 370.85 76.544 368.29 80.64C365.815 84.6507 362.402 87.808 358.05 90.112C353.783 92.3307 348.919 93.44 343.458 93.44H318.498ZM310.434 128V39.168H322.466V128H310.434ZM408.861 128V41.728H420.893V128H408.861ZM378.653 50.176V39.168H450.973V50.176H378.653Z" fill="#77ADF4"/>
<path d="M465.309 128V39.168H473.757L477.341 53.12V128H465.309ZM526.749 128L472.221 55.168L473.757 39.168L528.413 111.872L526.749 128ZM526.749 128L523.165 114.816V39.168H535.197V128H526.749ZM596.632 129.28C590.317 129.28 584.429 128.128 578.968 125.824C573.506 123.435 568.728 120.149 564.632 115.968C560.536 111.701 557.336 106.795 555.032 101.248C552.813 95.7013 551.704 89.7707 551.704 83.456C551.704 77.056 552.813 71.1253 555.032 65.664C557.336 60.1173 560.493 55.2533 564.504 51.072C568.6 46.8907 573.336 43.648 578.712 41.344C584.173 39.04 590.061 37.888 596.376 37.888C602.69 37.888 608.536 39.04 613.912 41.344C619.373 43.648 624.152 46.8907 628.248 51.072C632.344 55.2533 635.544 60.1173 637.848 65.664C640.152 71.2107 641.304 77.184 641.304 83.584C641.304 89.8987 640.152 95.8293 637.848 101.376C635.544 106.923 632.344 111.787 628.248 115.968C624.237 120.149 619.501 123.435 614.04 125.824C608.664 128.128 602.861 129.28 596.632 129.28ZM596.376 117.76C602.776 117.76 608.365 116.309 613.144 113.408C618.008 110.421 621.848 106.368 624.664 101.248C627.48 96.0427 628.888 90.112 628.888 83.456C628.888 78.5067 628.077 73.984 626.456 69.888C624.834 65.7067 622.573 62.08 619.672 59.008C616.77 55.936 613.357 53.5893 609.432 51.968C605.506 50.2613 601.154 49.408 596.376 49.408C590.061 49.408 584.472 50.8587 579.608 53.76C574.829 56.6613 571.032 60.672 568.216 65.792C565.485 70.912 564.12 76.8 564.12 83.456C564.12 88.4053 564.888 93.0133 566.424 97.28C568.045 101.461 570.264 105.088 573.08 108.16C575.981 111.147 579.394 113.493 583.32 115.2C587.33 116.907 591.682 117.76 596.376 117.76ZM681.865 128L646.281 39.168H659.337L688.649 114.304H683.913L713.481 39.168H726.409L690.569 128H681.865ZM722.281 128L758.633 39.168H767.337L803.561 128H790.505L760.681 52.864H765.161L735.081 128H722.281ZM739.561 107.904V97.408H786.281V107.904H739.561Z" fill="#084281"/>
</svg>
